<?xml version="1.0" encoding="UTF-8" standalone="no"?>
<svg width="14px" height="17px" viewBox="0 0 14 17" version="1.1" xmlns="http://www.w3.org/2000/svg" xmlns:xlink="http://www.w3.org/1999/xlink">
    <!-- Generator: Sketch 3.7.2 (28276) - http://www.bohemiancoding.com/sketch -->
    <title>Protege_ativado</title>
    <desc>Created with Sketch.</desc>
    <defs></defs>
    <g id="Symbols" stroke="none" stroke-width="1" fill="none" fill-rule="evenodd">
        <g id="Header-/-Header-Home-&gt;-Desktop" transform="translate(-978.000000, -63.000000)">
            <g id="Header">
                <g id="Avatar" transform="translate(860.090215, 40.000000)">
                    <g id="Avatar-+-tooltip-Ativar">
                        <g id="Avatar" transform="translate(87.909785, 0.000000)">
                            <g id="Protege_ativado" transform="translate(30.000000, 23.000000)">
                                <path d="M14.0002411,1.29969276 C14.0035824,0.581892269 13.4218715,0 12.7127917,0 L1.28345964,0 C0.569079723,0 -0.00668912599,0.582570602 -0.000292378634,1.29969276 C-0.000292378634,1.29969276 0.00816523258,6.29563965 0.288520989,10.1536383 C0.568876745,14.011637 6.15456454,16.8031759 6.15456454,16.8031759 C6.62058474,17.0635478 7.38333829,17.0676602 7.84461642,16.8031759 C7.84461642,16.8031759 13.4465512,14.011637 13.7269069,10.1536383 C14.0072627,6.29563965 14.0002411,1.29969276 14.0002411,1.29969276 Z" id="Shape" fill="#22B14C"></path>
                                <path d="M7.91831599,10.0009451 L5.23735631,10.9586859 C4.77545867,11.0979063 4.28645001,10.8776278 4.08875849,10.4130672 C3.88702558,9.93853589 4.0475026,9.38627008 4.44187528,9.08788775 L6.83438047,7.45158565 L8.58043102,6.2552867 C9.28211803,5.82193068 10.1752661,5.93844012 10.6856605,6.61903248 C10.6856605,6.61903248 10.8917715,6.88805665 10.9737782,7.32288981 C11.1214574,8.19274077 10.6304281,8.99205828 9.87653972,9.30318094 L7.91831599,10.0009451 Z" id="Fill-73-Copy" fill="#FFFFFF"></path>
                            </g>
                        </g>
                    </g>
                </g>
            </g>
        </g>
    </g>
</svg>