<?xml version="1.0" encoding="UTF-8" standalone="no"?>
<svg width="16px" height="14px" viewBox="0 0 16 14" version="1.1" xmlns="http://www.w3.org/2000/svg" xmlns:xlink="http://www.w3.org/1999/xlink">
    <!-- Generator: Sketch 3.8.2 (29753) - http://www.bohemiancoding.com/sketch -->
    <title>estrelas 3</title>
    <desc>Created with Sketch.</desc>
    <defs>
        <linearGradient x1="52.1408567%" y1="50%" x2="50.2459039%" y2="50%" id="linearGradient-1">
            <stop stop-color="#E0E1E2" offset="0%"></stop>
            <stop stop-color="#FFC600" offset="100%"></stop>
        </linearGradient>
    </defs>
    <g id="Home-Logado" stroke="none" stroke-width="1" fill="none" fill-rule="evenodd">
        <g id="Desktop-HD" transform="translate(-562.000000, -732.000000)" fill="url(#linearGradient-1)">
            <g id="Ultimos-Vistos-1-produto" transform="translate(106.079806, 478.000000)">
                <g id="Card-1" transform="translate(0.920194, 60.000000)">
                    <g transform="translate(16.011103, 0.000000)" id="Info-produto">
                        <g transform="translate(379.252602, 21.000000)">
                            <g id="Recomendam-+-Avaliacao" transform="translate(2.001388, 167.000000)">
                                <g id="Avaliacao" transform="translate(0.000000, 6.000000)">
                                    <g id="Estrelas">
                                        <path d="M67.8468082,5.59846619 C67.7136536,4.04009395 67.3157465,1.33803666 67.247267,0.914055315 C67.1564799,0.36080106 66.5934265,0.00323050247 66.0065091,1.98027615e-05 C65.4194188,-0.00335988115 64.9881365,0.426366928 64.9089355,0.901212517 C64.8368246,1.33465698 64.3425966,4.15162351 64.1982017,5.68785883 C62.6236929,5.28871816 60.2116942,4.79596025 59.808945,4.71941041 C59.2460646,4.6136263 58.7096421,5.0082044 58.5055872,5.54574313 C58.302051,6.0837888 58.5678412,6.62741096 58.9965296,6.86213001 C59.3371976,7.04851957 61.2961252,8.1410024 62.7412839,8.85648148 C61.846036,10.155294 60.7323802,11.9108708 60.5378362,12.2268713 C60.2436858,12.7074623 60.4392673,13.3349006 60.8868048,13.7063279 C61.3343423,14.0774172 61.9480635,14.0196246 62.3207232,13.705483 C62.6605266,13.4195617 64.8812671,11.5803377 66.0051257,10.4934314 C67.1175711,11.5972361 69.265336,13.4746506 69.6021996,13.7615857 C70.0357299,14.1282814 70.7021941,14.0485209 71.1542278,13.6823321 C71.6059155,13.3164813 71.6541624,12.7159115 71.4018606,12.3025762 C71.2055874,11.9798164 70.0991945,10.1287635 69.2200289,8.80629317 C70.6812699,8.11751359 72.7022786,7.05882761 73.0474427,6.87142414 C73.548242,6.59902162 73.699554,5.96026136 73.5020703,5.4198499 C73.3047595,4.87960743 72.7430896,4.63052472 72.259756,4.72008635 C71.8573527,4.79511533 69.4294446,5.22518011 67.8468082,5.59846619 Z" id="estrelas-3"></path>
                                    </g>
                                </g>
                            </g>
                        </g>
                    </g>
                </g>
            </g>
        </g>
    </g>
</svg>