<svg xmlns="http://www.w3.org/2000/svg" viewBox="0 0 16 14"><path fill="#E0E1E2" fill-rule="evenodd" d="M10.055 5.598c-.13-1.558-.524-4.26-.59-4.684C9.375.36 8.818.004 8.24 0a1.088 1.088 0 0 0-1.082.9c-.07.435-.558 3.252-.7 4.788-1.554-.4-3.932-.892-4.33-.97-.554-.104-1.083.29-1.285.828-.2.538.062 1.08.485 1.316.336.187 2.267 1.28 3.692 1.994a109.74 109.74 0 0 0-2.172 3.37c-.29.48-.098 1.11.344 1.48.44.37 1.046.314 1.414 0 .335-.286 2.525-2.126 3.633-3.213 1.095 1.104 3.213 2.982 3.545 3.27.428.365 1.085.286 1.53-.08.446-.367.494-.967.245-1.38-.193-.323-1.284-2.174-2.15-3.497a101.33 101.33 0 0 0 3.774-1.935c.494-.27.643-.91.448-1.45a1.094 1.094 0 0 0-1.225-.7c-.397.076-2.79.506-4.352.88z"/></svg>
